<?xml version="1.0" encoding="iso-8859-1"?>
<!-- Generator: Adobe Illustrator 19.0.0, SVG Export Plug-In . SVG Version: 6.00 Build 0)  -->
<svg xmlns="http://www.w3.org/2000/svg" xmlns:xlink="http://www.w3.org/1999/xlink" version="1.1" id="Layer_1" x="0px" y="0px" viewBox="0 0 512 512" style="enable-background:new 0 0 512 512;" xml:space="preserve">
<path style="fill:#00C3FF;" d="M335.289,8.91H27.916C17.419,8.91,8.91,17.419,8.91,27.916v456.167  c0,10.498,8.509,19.007,19.007,19.007h456.167c10.498,0,19.007-8.509,19.007-19.007V176.711c0-10.082-4.005-19.751-11.135-26.879  L362.169,20.044C355.039,12.914,345.371,8.91,335.289,8.91z"/>
<path style="fill:#00AAF0;" d="M84.937,179.972h228.084c20.996,0,38.014-17.02,38.014-38.014V12.442  c-4.911-2.243-10.244-3.533-15.746-3.533H46.923v133.049C46.923,162.953,63.942,179.972,84.937,179.972z"/>
<path style="fill:#E4EAF8;" d="M417.559,284.51H94.441c-10.497,0-19.007,8.509-19.007,19.007V503.09h361.132V303.517  C436.566,293.02,428.056,284.51,417.559,284.51z"/>
<rect x="75.434" y="465.077" style="fill:#C7CFE2;" width="361.132" height="38.014"/>
<path style="fill:#E4EAF8;" d="M84.937,8.91v123.545c0,10.497,8.51,19.007,19.007,19.007h199.573  c10.497,0,19.007-8.51,19.007-19.007V8.91H84.937z"/>
<rect x="227.49" y="46.923" style="fill:#00AAF0;" width="57.021" height="66.524"/>
<path d="M498.257,143.531L368.469,13.743C359.606,4.881,347.823,0,335.289,0H27.916C12.523,0,0,12.523,0,27.916v456.167  C0,499.477,12.523,512,27.916,512h456.167C499.477,512,512,499.477,512,484.083V176.711  C512,164.177,507.119,152.394,498.257,143.531z M84.343,17.819h229.271v114.636c0,5.568-4.53,10.097-10.097,10.097H94.441  c-5.568,0-10.097-4.53-10.097-10.097V17.819z M427.657,494.181H84.343V303.517c0-5.568,4.53-10.097,10.097-10.097h323.118  c5.568,0,10.097,4.53,10.097,10.097V494.181z M494.181,484.083c0,5.568-4.53,10.097-10.097,10.097h-38.608V303.517  c0-15.393-12.523-27.916-27.916-27.916H94.441c-15.393,0-27.916,12.523-27.916,27.916v190.664H27.916  c-5.568,0-10.097-4.53-10.097-10.097V27.916c0-5.568,4.53-10.097,10.097-10.097h38.608v114.636  c0,15.393,12.523,27.916,27.916,27.916h209.077c15.393,0,27.916-12.523,27.916-27.916V17.819h3.855  c7.774,0,15.083,3.027,20.58,8.525l129.788,129.788c5.497,5.497,8.525,12.806,8.525,20.58V484.083z"/>
<path d="M398.552,456.167H113.448c-4.92,0-8.91,3.989-8.91,8.909c0,4.92,3.989,8.91,8.91,8.91h285.104c4.92,0,8.91-3.989,8.91-8.91  C407.462,460.156,403.473,456.167,398.552,456.167z"/>
<path d="M379.545,389.643h-18.219c-4.92,0-8.91,3.989-8.91,8.91c0,4.92,3.989,8.91,8.91,8.91h18.219c4.92,0,8.91-3.989,8.91-8.91  C388.455,393.632,384.466,389.643,379.545,389.643z"/>
<path d="M132.455,407.462h192.448c4.92,0,8.91-3.989,8.91-8.91c0-4.92-3.989-8.91-8.91-8.91H132.455c-4.92,0-8.91,3.989-8.91,8.91  C123.545,403.473,127.534,407.462,132.455,407.462z"/>
<path d="M189.472,359.944h190.073c4.92,0,8.91-3.989,8.91-8.91c0-4.92-3.989-8.91-8.91-8.91H189.472c-4.92,0-8.91,3.989-8.91,8.91  C180.563,355.955,184.552,359.944,189.472,359.944z"/>
<path d="M132.455,359.944h20.595c4.92,0,8.91-3.989,8.91-8.91c0-4.92-3.989-8.91-8.91-8.91h-20.595c-4.92,0-8.91,3.989-8.91,8.91  C123.545,355.955,127.534,359.944,132.455,359.944z"/>
<path d="M227.49,122.357h57.021c4.92,0,8.91-3.989,8.91-8.91V46.923c0-4.92-3.989-8.91-8.91-8.91c-4.92,0-8.91,3.989-8.91,8.91  v57.615h-39.202V55.833h8.907c4.92,0,8.91-3.989,8.91-8.91s-3.989-8.91-8.91-8.91H227.49c-4.92,0-8.91,3.989-8.91,8.91v66.524  C218.58,118.368,222.569,122.357,227.49,122.357z"/>
<g>
</g>
<g>
</g>
<g>
</g>
<g>
</g>
<g>
</g>
<g>
</g>
<g>
</g>
<g>
</g>
<g>
</g>
<g>
</g>
<g>
</g>
<g>
</g>
<g>
</g>
<g>
</g>
<g>
</g>
</svg>
